<?xml version="1.0" encoding="UTF-8" standalone="no"?>
<!-- Created with Inkscape (http://www.inkscape.org/) -->

<svg
   xmlns:dc="http://purl.org/dc/elements/1.1/"
   xmlns:cc="http://creativecommons.org/ns#"
   xmlns:rdf="http://www.w3.org/1999/02/22-rdf-syntax-ns#"
   xmlns:svg="http://www.w3.org/2000/svg"
   xmlns="http://www.w3.org/2000/svg"
   xmlns:sodipodi="http://sodipodi.sourceforge.net/DTD/sodipodi-0.dtd"
   xmlns:inkscape="http://www.inkscape.org/namespaces/inkscape"
   width="212.59842"
   height="212.59842"
   id="svg7208"
   version="1.1"
   inkscape:version="0.48.4 r9939"
   sodipodi:docname="Nouveau document 9">
  <defs
     id="defs7210" />
  <sodipodi:namedview
     id="base"
     pagecolor="#ffffff"
     bordercolor="#666666"
     borderopacity="1.0"
     inkscape:pageopacity="0.0"
     inkscape:pageshadow="2"
     inkscape:zoom="1.979899"
     inkscape:cx="277.0152"
     inkscape:cy="156.2573"
     inkscape:document-units="px"
     inkscape:current-layer="layer1"
     showgrid="false"
     units="mm"
     showguides="true"
     inkscape:guide-bbox="true"
     inkscape:window-width="1855"
     inkscape:window-height="1056"
     inkscape:window-x="65"
     inkscape:window-y="24"
     inkscape:window-maximized="1">
    <sodipodi:guide
       orientation="1,0"
       position="106.57109,267.69042"
       id="guide7220" />
    <sodipodi:guide
       orientation="0,1"
       position="250.51783,105.56094"
       id="guide7222" />
  </sodipodi:namedview>
  <metadata
     id="metadata7213">
    <rdf:RDF>
      <cc:Work
         rdf:about="">
        <dc:format>image/svg+xml</dc:format>
        <dc:type
           rdf:resource="http://purl.org/dc/dcmitype/StillImage" />
        <dc:title></dc:title>
      </cc:Work>
    </rdf:RDF>
  </metadata>
  <g
     inkscape:label="Calque 1"
     inkscape:groupmode="layer"
     id="layer1"
     transform="translate(0,-839.76377)">
    <g
       id="g6665"
       transform="matrix(1.7797015,0,0,1.7797015,-633.1941,570.6485)"
       style="fill:#000000;fill-opacity:1">
      <path
         inkscape:connector-curvature="0"
         id="path16387-6"
         d="m 397.65265,225.72602 c 5.02737,2.5808 10.41623,4.3942 15.88831,5.7655 -4.22535,-3.6975 -8.26351,-7.8906 -10.61184,-13.0626 -1.12244,-2.4893 -1.53142,-5.5105 -0.28114,-8.0081 1.74371,-4.754 -0.43811,-10.5247 -4.89644,-12.9291 -4.37025,-2.59 -10.45723,-1.4818 -13.6372,2.4781 -2.81533,3.2872 -3.27947,8.2608 -1.2316,12.0565 2.94074,6.2535 8.78242,10.5868 14.76991,13.6997 z"
         style="fill:#000000;fill-opacity:1;stroke:none" />
      <path
         inkscape:connector-curvature="0"
         id="path16387-4-6"
         d="m 410.27512,207.16542 c 1.422,5.4693 3.65784,10.6971 6.2787,15.6926 -0.0552,-5.6143 0.38407,-11.4192 2.67883,-16.6152 1.10976,-2.495 3.09155,-4.8118 5.78724,-5.5423 4.7078,-1.8647 7.56012,-7.3352 6.38512,-12.2624 -0.97785,-4.9851 -5.85798,-8.7883 -10.92963,-8.5238 -4.32712,0.089 -8.34683,3.0542 -9.81484,7.1096 -2.70725,6.3581 -2.05005,13.6018 -0.38542,20.1415 z"
         style="fill:#000000;fill-opacity:1;stroke:none" />
      <path
         inkscape:connector-curvature="0"
         id="path16387-6-2"
         d="m 423.13241,225.80852 c -0.91827,5.576 -0.99532,11.2613 -0.62602,16.8905 2.22685,-5.1543 4.9828,-10.282 9.18787,-14.1006 2.02631,-1.8305 4.77735,-3.1445 7.53776,-2.7186 5.05955,0.205 9.88555,-3.6383 10.81004,-8.6186 1.12815,-4.9532 -1.78986,-10.4089 -6.533,-12.2243 -3.99112,-1.6742 -8.8681,-0.5938 -11.85487,2.5175 -5.05336,4.7136 -7.3908,11.6012 -8.52178,18.2541 z"
         style="fill:#000000;fill-opacity:1;stroke:none" />
    </g>
  </g>
</svg>
